<svg xmlns="http://www.w3.org/2000/svg" viewBox="0 0 512 512">
  <style>
    @media (prefers-color-scheme: dark) {
      path {
        fill: white;
      }
    }
  </style>
  <path fill="currentColor" d="M68.94,205.64c2.27,10.12,8.66,18.32,17.14,22.77-10.76,6.31-17.61,18.18-16.75,31.1,.58,8.84,4.77,17.26,11.49,23.08,2.62,2.27,6.49,4.65,10.62,6.33-4.67,3.48-8.53,8.31-10.88,15.12-2.97,8.59-2.19,18.21,2.12,26.4,4.35,8.26,11.93,14.39,20.79,16.82,1.81,.5,3.74,.83,5.73,1,1.78,.15,3.55,.15,5.28,.07,1.54,.37,3.16,.64,4.83,.77,5.33,.44,10.52-.37,15.1-1.08,1.21-.19,2.41-.38,3.6-.54l57.16-7.71c.82-.11,1.7-.21,2.61-.31l-4.9,14.55-13.46,43.66c-6.92,22.72-13.83,64.49,7.57,75.27,9.39,4.73,21.22,4.1,24.78-7.6,1.1-3.61,15.65-74.42,78.86-126.88,15.58-12.93,20.65-28.97,25.14-38.17,3.89-7.97,10.79-14.05,19.26-16.68,2.7-.84,5.52-1.54,8.48-2.1,5.1-.81,10.18-1.61,15.28-2.42,5.11-.58,10.34-1.52,15.61-2.5,4.46-.83,7.45-5.09,6.64-9.55,0-.03-.01-.05-.02-.08-6.12-39.94-31.66-84.46-40.91-125.2-2.25-9.92-11.78-16.43-21.86-15.07l-.19,.03-10.06-1.06c-4.43-1.67-8.87-3.34-13.3-5.01-14.55-5.48-29.11-10.96-43.66-16.44-4.69-1.77-9.82-2.68-14.99-3.33-16.32-2.06-42.77-.44-58.78,3.32-3.31,.78-6.61,1.59-9.91,2.42-3.09,.54-4.91,.91-4.91,.91v.32c-2.1,.52-4.18,1.04-6.27,1.56,2.08-.28,4.16-.56,6.24-.84v.27l-47.27,6.38c-12.27,1.65-21.72,9.35-25.09,20.26-5.26,8.83,2.58,22.89,2.68,23.04,1.38,2.32,3.07,4.4,5.01,6.21-7.12,1.09-11.83,2.73-14.67,5.74-11.73,7.58-17.27,21.19-14.14,35.16Z"/>
  <path fill="currentColor" d="M379.37,349.06c170.88-69.73-64.61-223.79,48.03-311.74,.3-.35,.54-.68,.84-1.04-9.42,1.42-25.02,8.89-30.31,11.52-14.61,8.7-25.91,20.21-32.81,33.38-27.8,53.1,28.67,124.49,39.05,185.76,6.1,30.47,2.36,58.75-24.79,82.12Z" />
  <!-- <path fill="currentColor" d="M571.7 841.7c-.1.1-3.7.4-7.9.8-7.2.6-11.3 1.2-11.3 1.5 0 .1-1.6.3-3.5.5-4.5.5-6.6.9-17.5 3.4-11.6 2.8-11.6 2.8-14.5 3.9-1.4.5-2.7 1-3 1-1.4.2-12.5 4-16.5 5.7-8 3.3-18.3 8.2-23.9 11.2-3.3 1.8-6.9 3.6-7.8 3.9-1 .4-1.8 1-1.8 1.5s-.5.9-1.1.9c-.6 0-4.7 2.5-9.1 5.5-4.4 3-8.3 5.5-8.8 5.5s-1 .3-1.2.8c-.1.4-2.3 2.3-4.8 4.2-6.4 5-6.6 5.1-11.3 9.3-13.2 12-27.2 26.8-29.1 30.8-.5 1-1.3 1.9-1.7 1.9-.4 0-2.1 1.9-3.7 4.2-1.6 2.4-5 7.3-7.5 11.1-2.6 3.7-4.7 7.1-4.7 7.6s-.4 1.1-.9 1.3c-2.9 1-21.1 41.3-24.7 54.3-3.2 11.6-5.3 20.2-5.8 23-.3 1.6-1.2 7-2.1 12-1.8 10.7-2.6 24.7-2.9 58-.2 13.7-.6 26.3-1 28-4 18.7-8 28.4-17.2 41.7-8.9 12.8-22.3 24.4-35.9 31-3.3 1.6-7.1 3.5-8.5 4.3-1.4.7-7.4 2.5-13.5 4-12.4 3.1-28.7 3.7-40.5 1.5-3.6-.7-7-1.3-7.7-1.4-.7-.1-1.6-.5-1.9-.9-.4-.4-1.5-.7-2.5-.7-3.2 0-18.1-7.1-26.5-12.5-8.2-5.4-22.3-19.8-28-28.6-4.7-7.3-11.7-23-12.8-28.5-.3-1.6-1-5-1.5-7.7-.6-2.6-1.3-8.9-1.6-14-.7-11.3-.7-11.3-3.1-16.2-3.3-6.9-10.8-13.4-17.7-15.2-1.2-.4-24.2-.7-51.2-.7l-49-.1-4.8 2.3c-5.8 2.9-11.7 8.6-14.3 13.8-1.6 3.3-1.9 6-1.8 18.4 0 12.5.5 20 1.9 28.5 1.1 6.7 2.3 13.6 2.9 16 .2 1.1.9 4 1.5 6.5 4 17.7 16 47.6 24.6 61.5 1.4 2.2 2.9 4.9 3.4 6 1.9 4.2 16.8 24.8 23.1 32 6.2 7 16.5 17.9 18 19.1.8.7 3.1 2.7 5 4.4 10 9.1 28.6 22.8 39.5 29.1 7.5 4.3 23 11.9 24.3 11.9.6 0 1.2.4 1.2.9s1 1.1 2.2 1.4c1.3.3 6.6 2.2 11.8 4.2 5.2 2 10.2 3.8 11 4 3.6.9 21.8 5.4 24.5 6 1.7.4 4.4.9 6 1.1 1.7.1 4.4.5 6 .8 7.7 1.5 17.5 2.1 35 2.1 19.1-.1 30.4-.9 40.5-3 1.4-.3 4-.8 5.9-1.1 5.8-1 21.4-4.9 24.1-6.1.8-.3 2.4-.8 3.5-1 1.1-.1 2.9-.7 4-1.2s6.1-2.5 11-4.4c5-1.9 11.2-4.7 13.9-6.1 2.7-1.4 5.2-2.6 5.7-2.6 1.2 0 17.6-9.7 25.9-15.2 15.2-10.3 34.9-27.6 48.1-42.4 4.8-5.4 18.7-24.3 22.5-30.6 2-3.5 4.4-7.1 5.2-8.1.8-.9 1.2-1.7.8-1.7-.3 0 .4-1.7 1.7-3.8 5-8.1 15.6-33.2 18.2-43.2.2-.8 1.3-4.7 2.3-8.5 2.6-9.3 5.1-21.1 5.7-26.5.3-2.5.7-5.6 1-7 1-4.9 1.7-21.9 1.9-49 .2-15.4.9-29.9 1.5-33 2.1-10.1 6.9-23.2 10.3-28.3 1.1-1.5 1.7-2.7 1.4-2.7-1.3 0 10-14.9 15.3-20.1 10.3-10.3 19.4-16.3 36.6-24 5.9-2.7 25.4-6.2 34-6.1 10 0 25.3 2.7 33.8 5.8 6.2 2.3 17.2 7.7 17.5 8.6.2.4 1 .8 1.7.8.8 0 2 .6 2.7 1.2.7.7 3.1 2.6 5.3 4.3 2.2 1.6 6.9 5.9 10.5 9.5l6.5 6.5h78.2l78.2.1-.6-2.6c-.3-1.4-.8-3-1.2-3.5-.3-.6-.7-1.8-.8-2.8-.7-4.5-8.1-22.5-14.6-35.6-9.1-18.2-9-18.1-9.9-18.1-.5 0-.8-.4-.8-.9 0-1.2-8.1-13.5-9.2-13.9-.4-.2-.8-.8-.8-1.3 0-.8-2-3.5-4.7-6.4-.7-.8-1.3-1.8-1.3-2.3 0-.6-.3-1.2-.7-1.4-.5-.2-2.6-2.3-4.7-4.8-12.5-14.4-32.3-33-39.2-36.8-1.3-.7-2.4-1.7-2.4-2.2 0-.6-.6-1-1.3-1-.8 0-2.2-.9-3.2-2s-2.4-2-3.1-2c-.7 0-1.4-.4-1.6-.8-.7-1.9-24.2-14.9-36.8-20.5-6.6-3-18.9-7.6-21.2-8.1-1.3-.2-3.4-.9-4.8-1.5-2.3-1-12.6-3.7-17.5-4.7-1.1-.2-3-.6-4.2-.9-5.3-1.2-6.9-1.5-10.8-2.1-12.2-1.9-22.8-2.7-38.8-2.8-8.2-.1-14.9 0-15 .1zM1258.8 841.5c-.2.2-3.9.6-8.3.9-11 .9-17.2 1.8-28.5 4.1-1.4.3-3.6.7-5 1-5.2 1-25.8 7.4-32.7 10.3-4 1.6-7.3 2.8-7.3 2.7 0-.2-6 2.7-13.2 6.4-13.8 7-24.1 12.9-24.6 14.3-.2.4-.8.8-1.3.8-.6 0-3 1.5-5.4 3.2-2.3 1.8-5.5 4.2-7.1 5.3-1.5 1.1-3.2 2.4-3.8 3-.6.5-3.8 3.2-7.1 6-13.7 11.4-32.9 32.5-41.3 45.4-2 3.1-3.9 5.8-4.2 6.1-1.2 1-7 11.1-7 12 0 .6-.3 1-.7 1-.5 0-2.1 2.9-3.8 6.5-1.6 3.5-3.3 6.5-3.7 6.5-.5 0-.8.8-.8 1.8s-.6 2.6-1.4 3.7c-2.6 3.9-14.2 35.5-13 35.5.3 0 0 .9-.6 1.9-.5 1.1-1.3 3.7-1.6 5.8-.3 2.1-.8 4.1-1.1 4.5-.5.9-1 3.4-1.8 8.8-.3 2-.8 4.7-1 6-.5 2.5-1.1 7.1-2.1 14.5-.2 2.2-.7 18.4-.9 36-.2 17.6-.6 33.3-.9 35-.4 1.6-.9 4.6-1.2 6.5-.3 1.9-1.7 7.1-3.1 11.5-7.9 25.3-27.3 47.3-52.2 59.4-5.9 2.8-16.9 6.6-22.1 7.5-1.4.3-2.5.5-2.5.6 0 .5-9.3 1.1-17.5 1.2-12.2.1-19.1-.9-30-4.3-15.7-5-29.5-13.5-41.1-25.2l-7-7.1-77.2-.1c-42.5 0-77.5.1-77.8.2-1 .4 2.2 12.7 3.5 13.5.6.4.8.8.4.8-.6 0 5.9 17.7 8.1 21.7.5 1 2.6 5.2 4.6 9.3 4.9 10.1 16 28.7 18.5 31 .3.3 1.7 2.3 3.2 4.5 1.5 2.2 3.8 5.2 5 6.6 1.3 1.5 4.2 4.9 6.5 7.6 17.5 20.6 43.2 41.6 66.3 54.1 5.1 2.8 14.5 7.6 15 7.7.3 0 2.3.9 4.5 1.9 7.2 3.3 12 5.2 15.5 6.1.3.1 1.9.7 3.5 1.4 6.7 2.8 29.2 8.5 38 9.7 2.8.3 5.2.7 5.6.9 2.9 1.8 47.3 2.7 59.4 1.2 3.3-.4 8-1 10.5-1.3 2.5-.3 8.7-1.4 13.9-2.5 5.1-1.2 10.1-2.2 11-2.4.9-.2 4.6-1.3 8.4-2.5 3.7-1.2 7.3-2.3 8-2.4.6-.2 2.1-.7 3.2-1.1 1.1-.4 5.2-2 9-3.5 39.7-15.6 76.8-43.4 102.3-77 4-5.2 8.1-10.6 9.2-12 1.1-1.4 2-3 2-3.7 0-.6.4-1.3.8-1.5 1-.4 7.9-12.2 13.3-22.6 7-13.7 14.6-34.2 18.5-49.7.4-1.7.8-3.2.9-3.5.4-1.6 1.5-6.9 2-9.5.3-1.7.7-4.1 1-5.5.2-1.4.7-4.8 1.1-7.5.3-2.8.8-6.6 1-8.5.3-1.9.7-16.6.9-32.5.6-38.3.8-41.5 4.4-53.5 3-10.5 9.6-25 11.3-25 .4 0 .8-.5.8-1.1 0-1.2 5.8-8.9 10.4-13.9 25.4-27.1 62.3-38 97.6-29 7.2 1.8 21.6 7.5 23 9 .3.3 2.2 1.4 4.3 2.4 2 1.1 3.7 2.3 3.7 2.8 0 .4.5.8 1.1.8 1.9 0 11.2 8.1 18.9 16.6 7.9 8.7 16.3 23.9 19.8 35.9 3.8 13 4.1 16.1 4.7 40.5.6 26.9 1.3 44.9 2 49.5 2 13.6 3.8 23.8 5.1 29 2.1 8.7 7.4 25.6 9 28.7.8 1.4 1.4 3.2 1.4 3.9 0 2.2 13.7 29.4 19.2 38.2 4.8 7.8 15.1 22 21.4 29.7 3.3 4 23.2 24 28.5 28.5 5.4 4.7 24.7 18.7 25.5 18.5.4-.1 1 .3 1.3.8.9 1.5 10.2 6.8 23.1 13.2 17.6 8.9 40.7 16.8 59.1 20.4.8.2 3 .6 4.9 1 3.6.7 5.3.9 17.5 2.3 8.8 1 41 1 49 .1 13.8-1.7 19.6-2.6 26.8-4.3 3.1-.7 5.7-1 5.7-.7 0 .3.5.1 1.2-.6s2-1.2 3-1.2c1.9 0 23.7-7 29.5-9.5 10.4-4.5 27.7-13.3 35.1-17.9 4.6-2.8 9.5-5.7 10.8-6.4 1.3-.7 2.4-1.7 2.4-2.3 0-.5.7-.9 1.5-.9s1.5-.3 1.5-.8c0-.4 2.1-2.1 4.5-3.7 2.5-1.7 4.5-3.3 4.5-3.8 0-.4.4-.7.9-.7 2.1 0 23.8-20.9 33.2-32 7.2-8.5 14.7-18.6 16.1-21.6.6-1.3 1.4-2.4 1.8-2.4.4 0 1.3-1.4 2-3 .7-1.7 1.6-3 2.1-3s.9-.9.9-2 .3-2 .8-2c.4 0 1.2-1 1.8-2.3.7-1.2 2.8-5.4 4.9-9.2 7.4-14.2 19.5-45.8 18-47.4-.3-.2-35.4-.5-78-.5l-77.4-.1-6.7 6.8c-3.6 3.7-9.8 9.1-13.8 11.8-7 4.9-21.3 12.4-25.8 13.4-1.3.2-4.8 1.1-7.8 2-15.9 4.2-37 3.8-52-1.2-2.5-.8-5.2-1.6-6.1-1.8-.9-.2-2.5-.8-3.5-1.3-1.1-.6-4.1-2.1-6.9-3.3-2.7-1.3-5.4-2.7-6-3.2-.5-.4-3-2.1-5.5-3.7s-6.1-4.4-8.2-6.2c-2-1.8-4.4-4.1-5.5-5-5.4-4.9-11.6-13-16.5-21.4-3.8-6.5-11.2-25.3-10.3-26.2.2-.3 0-1.1-.6-1.9-.6-.7-.9-1.3-.6-1.3.3 0 .1-1.5-.4-3.3-.5-1.7-1.2-12.2-1.4-23.2-.7-28.8-1.5-50.7-2-53.4-.2-1.3-.7-4.9-1.1-8-.8-7.4-2.9-17.5-6-29.1-1.4-5.2-2.7-10-2.8-10.5-.2-.6-.8-2.3-1.4-3.8-.7-1.6-1.2-3.3-1.2-3.8 0-.6-1.1-3.5-2.5-6.5s-2.5-5.6-2.5-5.9c0-.2-.5-1.6-1.2-3.2-.6-1.5-1.2-3-1.3-3.3 0-.3-.7-1.6-1.5-3s-1.5-2.7-1.5-3c-.1-.7-4.7-9.4-8-15-1.4-2.5-3.1-5.5-3.7-6.8-.6-1.2-1.5-2.2-2-2.2-.4 0-.8-.5-.8-1.1 0-1.3-7.7-12.2-16-22.4-23.9-29.7-60.4-56.9-94.5-70.5-4.4-1.7-8.9-3.6-10-4-5.8-2.5-30-9.1-38-10.4-1.6-.2-3-.5-3-.6 0-.2-1.1-.4-2.5-.5-1.4-.1-4.3-.5-6.5-.8-8.2-1.3-15.4-1.8-30.2-2.1-8.4-.2-15.4-.2-15.5-.1zM1942.7 841.6c-.1.1-3.8.5-8.2.9-4.4.3-9.1.8-10.5 1-1.4.2-4.1.7-6 .9-7.9 1.2-9.8 1.6-17.5 3.5-25.3 6.2-44.1 13.8-66 26.4-6.9 4-18.5 11.5-19.5 12.6-.3.4-2.2 1.7-4.2 3.1-2.1 1.4-3.8 2.8-3.8 3.2 0 .5-.4.8-1 .8-.5 0-1.8.8-2.9 1.7-1 1-4.9 4.5-8.6 7.8-10 8.8-20.4 20-29 30.9-1.6 2.1-3.6 4.5-4.2 5.2-.7.7-1.3 1.7-1.3 2.2 0 .6-.3 1.2-.7 1.4-1.2.5-7.3 9.5-7.3 10.6 0 .6-.4 1.2-.8 1.4-1.3.5-15.6 27-15.7 29 0 .4-.6 1.3-1.2 1.9-.7.7-1.3 2-1.3 2.9 0 .9-.3 2-.7 2.4-.5.4-.8 1.1-.9 1.4 0 .4-.5 1.8-1.1 3.2-2.3 5.4-7.3 21.2-7.3 22.9 0 1.7 3.9 1.8 77.6 1.8h77.6l6.8-6.6c10.7-10.4 15.8-14.2 26.5-19.5 12.6-6.2 24.3-9.5 36-10.1 3.9-.2 7.2-.5 7.5-.6 1.1-.2 6.7 0 12 .6 48.4 5.3 86.1 45.4 88.5 94 .7 13.7 3.2 20.2 9.8 26 6.6 5.8 13.6 8 24.7 7.6 3-.1 6.2-.2 7-.2 5.2.2 24.7.2 25.5.1.6-.1 1.2-.2 1.5 0 1.7.6 15 .4 15-.3 0-.5.5-.5 1.1-.1 1 .6 11.8.9 14.4.4.6-.2 1.3-.1 1.8 0 1.7.4 13.5.1 17.7-.5 11.1-1.5 20.7-10.2 23.8-21.5.5-1.9.3-21.1-.3-27-.6-6-1.5-13.8-2.1-17.5-.3-1.7-.7-4.1-.9-5.5-.5-3.9-5.5-24.3-6.5-26.5-.5-1.1-1.6-4.5-2.5-7.5-1.7-5.6-3.9-11.2-5.5-14.2-.6-1-1-2.2-1-2.8 0-3.2-15.4-31.4-22.2-40.7-2.1-2.9-3.8-5.5-3.8-5.8 0-.4-.6-1.2-1.2-1.9-.7-.7-2.4-2.8-3.8-4.6-16.7-22.2-42.1-44.9-67.5-60.2-12.3-7.4-35.2-17.9-49-22.4-1.8-.6-19-5.5-20.5-5.8-7.3-1.7-22.3-4.1-32-5.2-5.4-.6-35.8-1.3-36.3-.8z" /> -->
</svg>