<?xml version="1.0" standalone="no"?>
<!DOCTYPE svg PUBLIC "-//W3C//DTD SVG 20010904//EN"
 "http://www.w3.org/TR/2001/REC-SVG-20010904/DTD/svg10.dtd">
<svg version="1.0" xmlns="http://www.w3.org/2000/svg"
 width="512.000000pt" height="512.000000pt" viewBox="0 0 512.000000 512.000000"
 preserveAspectRatio="xMidYMid meet">
<metadata>
Created by potrace 1.14, written by Peter Selinger 2001-2017
</metadata>
<g transform="translate(0.000000,512.000000) scale(0.100000,-0.100000)"
fill="#000000" stroke="none">
<path d="M4235 4748 c-213 -70 -349 -150 -462 -270 -102 -109 -162 -226 -189
-368 -8 -43 -13 -202 -6 -213 2 -5 6 -30 7 -55 5 -65 43 -225 72 -302 3 -8 7
-21 9 -29 1 -7 12 -36 23 -65 10 -28 34 -89 52 -136 18 -47 36 -89 39 -95 4
-5 13 -28 20 -49 7 -22 28 -72 46 -113 19 -40 34 -77 35 -81 1 -4 6 -18 11
-32 47 -123 110 -312 126 -380 52 -212 60 -408 23 -543 -19 -70 -57 -165 -70
-177 -4 -3 -12 -17 -20 -32 -16 -31 -31 -48 -105 -126 l-51 -53 80 36 c150 68
257 138 356 234 38 37 69 73 69 79 0 7 4 12 9 12 11 0 75 122 95 180 46 140
43 318 -9 545 -14 61 -107 328 -140 400 -77 171 -237 601 -249 670 -3 13 -7
28 -9 32 -15 25 -39 223 -39 313 1 148 33 263 110 395 26 45 49 71 136 157 43
43 75 78 70 77 -5 0 -22 -5 -39 -11z"/>
<path d="M2219 4126 c-2 -2 -58 -6 -124 -9 -148 -8 -254 -21 -355 -46 -25 -7
-56 -14 -70 -17 -14 -3 -43 -11 -65 -19 -22 -7 -69 -16 -105 -20 -36 -4 -74
-9 -85 -11 -11 -3 -40 -7 -65 -9 -25 -3 -56 -7 -70 -10 -14 -3 -47 -7 -75 -11
-108 -12 -150 -26 -213 -74 -29 -22 -100 -120 -87 -120 3 0 -1 -13 -9 -28 -28
-55 -3 -171 53 -251 l21 -29 -46 -11 c-48 -12 -144 -69 -144 -86 0 -6 -8 -15
-19 -22 -17 -11 -61 -88 -69 -123 -11 -47 -7 -159 7 -201 27 -76 83 -149 135
-176 l29 -15 -28 -18 c-72 -47 -130 -148 -140 -240 -13 -131 52 -256 171 -326
l41 -24 -33 -36 c-62 -65 -98 -184 -82 -272 11 -65 50 -142 93 -185 40 -40
119 -85 164 -94 64 -12 222 -17 271 -8 29 5 75 12 145 21 28 3 59 8 70 10 11
2 43 6 70 8 28 2 61 7 75 11 14 3 45 8 70 10 25 2 45 4 45 5 0 1 16 3 36 5 20
3 61 8 91 13 l56 9 -15 -41 c-8 -23 -16 -48 -19 -56 -2 -8 -22 -73 -45 -145
-49 -154 -119 -384 -124 -405 -39 -166 -50 -250 -48 -371 2 -154 47 -258 136
-313 39 -24 59 -29 112 -30 60 -1 67 2 99 33 27 26 39 51 61 129 65 237 186
497 331 713 51 77 99 146 106 153 7 7 33 38 58 67 53 63 189 198 290 289 59
52 170 193 170 214 0 3 20 49 45 102 44 92 87 148 145 185 29 18 110 46 158
54 70 11 89 14 132 20 249 34 259 43 225 210 -22 109 -115 396 -155 480 -5 11
-43 108 -83 215 -69 180 -101 276 -156 466 -16 56 -29 79 -57 104 -48 42 -70
49 -170 55 -69 4 -110 14 -207 51 -67 25 -131 49 -142 54 -11 6 -82 32 -158
60 -75 27 -145 54 -155 59 -9 5 -33 12 -52 15 -19 3 -46 8 -60 11 -14 4 -55 8
-92 10 -37 2 -71 6 -76 9 -5 3 -11 4 -13 2z"/>
</g>
</svg>
