<?xml version="1.0" encoding="UTF-8"?><svg id="a" xmlns="http://www.w3.org/2000/svg" width="512" height="512" viewBox="0 0 512 512"><path d="M68.94,205.64c2.27,10.12,8.66,18.32,17.14,22.77-10.76,6.31-17.61,18.18-16.75,31.1,.58,8.84,4.77,17.26,11.49,23.08,2.62,2.27,6.49,4.65,10.62,6.33-4.67,3.48-8.53,8.31-10.88,15.12-2.97,8.59-2.19,18.21,2.12,26.4,4.35,8.26,11.93,14.39,20.79,16.82,1.81,.5,3.74,.83,5.73,1,1.78,.15,3.55,.15,5.28,.07,1.54,.37,3.16,.64,4.83,.77,5.33,.44,10.52-.37,15.1-1.08,1.21-.19,2.41-.38,3.6-.54l57.16-7.71c.82-.11,1.7-.21,2.61-.31l-4.9,14.55-13.46,43.66c-6.92,22.72-13.83,64.49,7.57,75.27,9.39,4.73,21.22,4.1,24.78-7.6,1.1-3.61,15.65-74.42,78.86-126.88,15.58-12.93,20.65-28.97,25.14-38.17,3.89-7.97,10.79-14.05,19.26-16.68,2.7-.84,5.52-1.54,8.48-2.1,5.1-.81,10.18-1.61,15.28-2.42,5.11-.58,10.34-1.52,15.61-2.5,4.46-.83,7.45-5.09,6.64-9.55,0-.03-.01-.05-.02-.08-6.12-39.94-31.66-84.46-40.91-125.2-2.25-9.92-11.78-16.43-21.86-15.07l-.19,.03-10.06-1.06c-4.43-1.67-8.87-3.34-13.3-5.01-14.55-5.48-29.11-10.96-43.66-16.44-4.69-1.77-9.82-2.68-14.99-3.33-16.32-2.06-42.77-.44-58.78,3.32-3.31,.78-6.61,1.59-9.91,2.42-3.09,.54-4.91,.91-4.91,.91v.32c-2.1,.52-4.18,1.04-6.27,1.56,2.08-.28,4.16-.56,6.24-.84v.27l-47.27,6.38c-12.27,1.65-21.72,9.35-25.09,20.26-5.26,8.83,2.58,22.89,2.68,23.04,1.38,2.32,3.07,4.4,5.01,6.21-7.12,1.09-11.83,2.73-14.67,5.74-11.73,7.58-17.27,21.19-14.14,35.16Z" fill="#ece2d0"/><path d="M379.37,349.06c170.88-69.73-64.61-223.79,48.03-311.74,.3-.35,.54-.68,.84-1.04-9.42,1.42-25.02,8.89-30.31,11.52-14.61,8.7-25.91,20.21-32.81,33.38-27.8,53.1,28.67,124.49,39.05,185.76,6.1,30.47,2.36,58.75-24.79,82.12Z" fill="#f37220"/></svg>